:SAMPLES-PER-SECOND 30
:FRAME-RANGE 1-1086
:FULLY-SPECIFIED
:DEGREES
442
root  -98.5562 38.7414 46.7014 17.1701 42.645 6.90016
RightUpLeg  -22.813 -8.87203 -4.48454
RightLeg  11.7359 -10.6684 0.592231
RightFoot  -2.89761 -0.323815 4.11634
RightToes  -5.8209e-011 0 -3.6325e-017
Spine  12.5191 0.257476 8.50871
Spine1  4.71179 1.36096 -1.99456
HEad  -9.32619 -3.82728 -2.61169
LeftShoulder1  2.14394 -2.01124 -32.7598
LeftArm  23.8668 -4.93959 -39.1709
LeftForeArm  0.841496 -13.1356 -13.6148
LeftHand  0.415749 -2.51583 -5.91548
RightShoulder  11.04 15.2417 51.5312
RightArm  -0.149562 1.57783 13.9947
RightForeArm  3.39677 -6.4123 17.4932
RightHand  0.288476 1.59888 4.65619
LeftUpLeg  -21.6825 7.58173 0.942378
LeftLeg  21.9756 3.88428 2.05185
LeftFoot  -6.29466 0.381545 -7.79474
LeftToes  5.72949e-011 5.22586e-011 2.45399e-011
443
root  -98.5559 38.7734 46.9889 17.221 42.4602 7.21342
RightUpLeg  -22.111 -8.65726 -4.67034
RightLeg  11.3887 -10.7182 0.891861
RightFoot  -3.18153 -0.297604 3.86597
RightToes  -5.8209e-011 0 -3.6325e-017
Spine  12.3952 0.284522 8.8328
Spine1  4.95975 1.37949 -1.97696
HEad  -9.27377 -3.5939 -3.18303
LeftShoulder1  2.14572 -2.00093 -32.9491
LeftArm  22.4853 -4.34034 -38.7782
LeftForeArm  1.94642 -12.4175 -14.0298
LeftHand  0.417971 -2.6305 -5.85319
RightShoulder  11.0552 15.3843 51.2168
RightArm  -0.322265 1.94767 14.0409
RightForeArm  4.27041 -6.46215 17.4169
RightHand  0.286007 1.79297 4.47201
LeftUpLeg  -23.0276 7.10815 0.147721
LeftLeg  26.8665 4.24353 2.6685
LeftFoot  -7.34065 0.315408 -7.76446
LeftToes  5.72949e-011 5.22586e-011 2.45399e-011
444
root  -98.5212 38.7911 47.2666 17.0012 42.5234 7.33919
RightUpLeg  -21.2677 -8.68417 -4.69491
RightLeg  11.2036 -10.7755 1.12697
RightFoot  -3.53015 -0.273169 3.64687
RightToes  -5.8209e-011 0 -3.6325e-017
Spine  12.1878 0.297445 9.41151
Spine1  5.11517 1.42091 -2.02559
HEad  -8.91315 -3.40159 -3.66528
LeftShoulder1  2.13354 -1.96079 -33.0117
LeftArm  22.3885 -3.58121 -38.5502
LeftForeArm  1.94319 -12.6709 -13.8305
LeftHand  0.436653 -2.64389 -6.11215
RightShoulder  11.1011 15.6729 50.6606
RightArm  -1.44175 2.55282 14.097
RightForeArm  5.45883 -6.68597 17.1907
RightHand  0.2579 1.70907 4.07295
LeftUpLeg  -24.2145 6.98027 -0.576439
LeftLeg  31.4687 3.98605 2.9734
LeftFoot  -8.39189 0.26496 -8.33113
LeftToes  5.72949e-011 5.22586e-011 2.45399e-011
445
root  -98.4707 38.8005 47.5479 16.6223 42.5833 7.31732
RightUpLeg  -20.3032 -8.7869 -4.56299
RightLeg  10.9399 -10.7483 1.29959
RightFoot  -3.96843 -0.266415 3.71332
RightToes  -5.8209e-011 0 -3.6325e-017
Spine  11.9647 0.421499 9.97109
Spine1  5.09313 1.60623 -2.15397
HEad  -8.42273 -3.28646 -4.13253
LeftShoulder1  2.11248 -1.90909 -32.9949
LeftArm  22.8143 -2.9492 -38.3649
LeftForeArm  1.2225 -13.3473 -13.3638
LeftHand  0.453594 -2.76252 -6.2542
RightShoulder  11.246 15.9836 50.5016
RightArm  -1.88203 3.61916 13.4298
RightForeArm  5.51945 -6.72293 17.1581
RightHand  0.219507 1.62499 3.49379
LeftUpLeg  -25.2122 7.19697 -1.17658
LeftLeg  35.4423 3.83022 3.28171
LeftFoot  -9.02212 0.237522 -9.05463
LeftToes  5.72949e-011 5.22586e-011 2.45399e-011
446
root  -98.4173 38.8157 47.8324 16.0629 42.859 7.22908
RightUpLeg  -19.1508 -8.92995 -4.4117
RightLeg  10.6791 -10.7005 1.51484
RightFoot  -4.22439 -0.238132 3.36501
RightToes  -5.8209e-011 0 -3.6325e-017
Spine  11.8633 0.568627 10.3326
Spine1  4.89956 1.74583 -2.00775
HEad  -8.06828 -3.19807 -4.60869
LeftShoulder1  2.10136 -1.86214 -33.128
LeftArm  23.4474 -2.53386 -38.0244
LeftForeArm  0.400986 -14.1996 -12.7368
LeftHand  0.464239 -2.98304 -6.2188
RightShoulder  11.3857 16.4838 49.848
RightArm  -4.05655 4.69125 13.0587
RightForeArm  7.46411 -7.09693 16.7335
RightHand  0.202243 1.77582 3.12606
LeftUpLeg  -25.9068 7.4134 -1.57896
LeftLeg  38.4895 3.85749 3.65144
LeftFoot  -9.12166 0.235079 -9.30368
LeftToes  5.72949e-011 5.22586e-011 2.45399e-011
447
root  -98.3529 38.808 48.1104 15.4773 43.2641 7.07849
RightUpLeg  -18.031 -8.98372 -4.19926
RightLeg  10.5054 -11.0321 1.59931
RightFoot  -4.6793 -0.218709 3.20893
RightToes  -5.8209e-011 0 -3.6325e-017
Spine  11.7628 0.691708 10.7048
Spine1  4.49437 1.88571 -1.99334
HEad  -7.95509 -3.05122 -4.97923
LeftShoulder1  2.08908 -1.8368 -33.0837
LeftArm  24.1191 -2.27811 -37.7874
LeftForeArm  -0.51653 -15.0889 -12.0488
LeftHand  0.472156 -3.0909 -6.23921
RightShoulder  11.5586 17.0097 49.3013
RightArm  -6.30525 6.02678 12.4754
RightForeArm  8.84869 -7.42264 16.3151
RightHand  0.182537 1.81103 2.78937
LeftUpLeg  -26.5259 8.05035 -1.83053
LeftLeg  40.6317 3.80302 3.86688
LeftFoot  -9.15779 0.236936 -9.54294
LeftToes  5.72949e-011 5.22586e-011 2.45399e-011
448
root  -98.2881 38.8405 48.3901 15.1161 43.6908 7.20055
RightUpLeg  -16.8623 -9.03073 -4.18015
RightLeg  10.1513 -11.265 1.6646
RightFoot  -4.91547 -0.200363 2.97211
RightToes  -5.8209e-011 0 -3.6325e-017
Spine  11.5492 0.857193 10.6646
Spine1  4.1213 2.03894 -1.99392
HEad  -7.88961 -2.85941 -5.35441
LeftShoulder1  2.08135 -1.80388 -33.1797
LeftArm  24.9191 -2.39049 -37.4279
LeftForeArm  -1.49842 -15.9581 -11.3456
LeftHand  0.467965 -3.1296 -6.15073
RightShoulder  11.7658 17.6776 48.5892
RightArm  -8.90408 7.39025 11.9121
RightForeArm  10.0739 -7.75952 15.7845
RightHand  0.175362 1.89445 2.63532
LeftUpLeg  -26.8519 8.85721 -2.18881
LeftLeg  41.359 3.78673 3.94492
LeftFoot  -9.13446 0.238706 -9.54102
LeftToes  5.72949e-011 5.22586e-011 2.45399e-011
449
root  -98.2065 38.8637 48.6591 14.5708 44.4745 7.34262
RightUpLeg  -15.4 -9.18576 -4.21541
RightLeg  9.79434 -11.8646 1.7253
RightFoot  -5.31719 -0.183048 2.7902
RightToes  -5.8209e-011 0 -3.6325e-017
Spine  11.4774 0.898548 10.6638
Spine1  3.73941 2.09445 -2.04516
HEad  -7.77402 -2.65226 -5.68009
LeftShoulder1  2.08134 -1.811 -33.1393
LeftArm  25.6691 -2.8242 -37.2257
LeftForeArm  -2.24787 -16.666 -10.7454
LeftHand  0.451262 -3.14677 -5.9101
RightShoulder  11.8701 18.3169 47.5594
RightArm  -11.4866 8.63844 11.624
RightForeArm  10.4861 -7.82455 15.213
RightHand  0.174599 1.84409 2.59078
LeftUpLeg  -26.8188 9.72925 -2.38314
LeftLeg  41.048 3.49272 3.63217
LeftFoot  -9.10477 0.242631 -9.62389
LeftToes  5.72949e-011 5.22586e-011 2.45399e-011
